<svg xmlns="http://www.w3.org/2000/svg" class="svg-symbols">
  <defs>
    <symbol viewBox="0 0 112.196 112.196" id="svg-facebook">
      <g>
        <circle style="fill:#3B5998;" cx="56.098" cy="56.098" r="56.098"/>
        <path style="fill:#FFFFFF;" d="M70.201,58.294h-10.01v36.672H45.025V58.294h-7.213V45.406h7.213v-8.34
          c0-5.964,2.833-15.303,15.301-15.303L71.56,21.81v12.51h-8.151c-1.337,0-3.217,0.668-3.217,3.513v7.585h11.334L70.201,58.294z"/>
      </g>
    </symbol>

    <symbol viewBox="0 0 112.196 112.196" id="svg-linkedin">
      <title>linkedin icon</title>
      <g>
        <circle style="fill:#007AB9;" cx="56.098" cy="56.097" r="56.098"/>
        <g>
          <path style="fill:#F1F2F2;" d="M89.616,60.611v23.128H76.207V62.161c0-5.418-1.936-9.118-6.791-9.118
            c-3.705,0-5.906,2.491-6.878,4.903c-0.353,0.862-0.444,2.059-0.444,3.268v22.524H48.684c0,0,0.18-36.546,0-40.329h13.411v5.715
            c-0.027,0.045-0.065,0.089-0.089,0.132h0.089v-0.132c1.782-2.742,4.96-6.662,12.085-6.662
            C83.002,42.462,89.616,48.226,89.616,60.611L89.616,60.611z M34.656,23.969c-4.587,0-7.588,3.011-7.588,6.967
            c0,3.872,2.914,6.97,7.412,6.97h0.087c4.677,0,7.585-3.098,7.585-6.97C42.063,26.98,39.244,23.969,34.656,23.969L34.656,23.969z
            M27.865,83.739H41.27V43.409H27.865V83.739z"/>
        </g>
      </g>
    </symbol>

    <symbol viewBox="0 0 50 50" id="svg-checkmark">
      <title>check mark</title>
      <circle fill="currentColor" cx="25" cy="25" r="25"/>
      <polyline id="svg-checkmark--check" style="stroke:#FFFFFF;stroke-width:3;stroke-linecap:round;stroke-linejoin:round;stroke-miterlimit:10;" points="
        38,15 22,33 12,25 "/>
    </symbol>

    <symbol viewBox="0 0 27.965 27.965" id="svg-close">
      <title>close button</title>
      <g>
        <g id="c142_x">
          <path d="M13.98,0C6.259,0,0,6.261,0,13.983c0,7.721,6.259,13.982,13.98,13.982c7.725,0,13.985-6.262,13.985-13.982
            C27.965,6.261,21.705,0,13.98,0z M19.992,17.769l-2.227,2.224c0,0-3.523-3.78-3.786-3.78c-0.259,0-3.783,3.78-3.783,3.78
            l-2.228-2.224c0,0,3.784-3.472,3.784-3.781c0-0.314-3.784-3.787-3.784-3.787l2.228-2.229c0,0,3.553,3.782,3.783,3.782
            c0.232,0,3.786-3.782,3.786-3.782l2.227,2.229c0,0-3.785,3.523-3.785,3.787C16.207,14.239,19.992,17.769,19.992,17.769z"/>
        </g>
      </g>
    </symbol>

    <symbol viewBox="0 0 44 44" id="svg-email">
      <title>email icon</title>
      <g>
        <g>
          <g>
            <path d="M43,6H1C0.447,6,0,6.447,0,7v30c0,0.553,0.447,1,1,1h42c0.552,0,1-0.447,1-1V7C44,6.447,43.552,6,43,6z M42,33.581     L29.612,21.194l-1.414,1.414L41.59,36H2.41l13.392-13.392l-1.414-1.414L2,33.581V8h40V33.581z"/>
          </g>
        </g>
        <g>
          <g>
            <path d="M39.979,8L22,25.979L4.021,8H2v0.807L21.293,28.1c0.391,0.391,1.023,0.391,1.414,0L42,8.807V8H39.979z"/>
          </g>
        </g>
      </g>
    </symbol>

    <symbol viewBox="0 0 473.806 473.806" id="svg-phone">
      <title>phone icon</title>
      <g>
        <g>
          <path d="M374.456,293.506c-9.7-10.1-21.4-15.5-33.8-15.5c-12.3,0-24.1,5.3-34.2,15.4l-31.6,31.5c-2.6-1.4-5.2-2.7-7.7-4
            c-3.6-1.8-7-3.5-9.9-5.3c-29.6-18.8-56.5-43.3-82.3-75c-12.5-15.8-20.9-29.1-27-42.6c8.2-7.5,15.8-15.3,23.2-22.8
            c2.8-2.8,5.6-5.7,8.4-8.5c21-21,21-48.2,0-69.2l-27.3-27.3c-3.1-3.1-6.3-6.3-9.3-9.5c-6-6.2-12.3-12.6-18.8-18.6
            c-9.7-9.6-21.3-14.7-33.5-14.7s-24,5.1-34,14.7c-0.1,0.1-0.1,0.1-0.2,0.2l-34,34.3c-12.8,12.8-20.1,28.4-21.7,46.5
            c-2.4,29.2,6.2,56.4,12.8,74.2c16.2,43.7,40.4,84.2,76.5,127.6c43.8,52.3,96.5,93.6,156.7,122.7c23,10.9,53.7,23.8,88,26
            c2.1,0.1,4.3,0.2,6.3,0.2c23.1,0,42.5-8.3,57.7-24.8c0.1-0.2,0.3-0.3,0.4-0.5c5.2-6.3,11.2-12,17.5-18.1c4.3-4.1,8.7-8.4,13-12.9
            c9.9-10.3,15.1-22.3,15.1-34.6c0-12.4-5.3-24.3-15.4-34.3L374.456,293.506z M410.256,398.806
            C410.156,398.806,410.156,398.906,410.256,398.806c-3.9,4.2-7.9,8-12.2,12.2c-6.5,6.2-13.1,12.7-19.3,20
            c-10.1,10.8-22,15.9-37.6,15.9c-1.5,0-3.1,0-4.6-0.1c-29.7-1.9-57.3-13.5-78-23.4c-56.6-27.4-106.3-66.3-147.6-115.6
            c-34.1-41.1-56.9-79.1-72-119.9c-9.3-24.9-12.7-44.3-11.2-62.6c1-11.7,5.5-21.4,13.8-29.7l34.1-34.1c4.9-4.6,10.1-7.1,15.2-7.1
            c6.3,0,11.4,3.8,14.6,7c0.1,0.1,0.2,0.2,0.3,0.3c6.1,5.7,11.9,11.6,18,17.9c3.1,3.2,6.3,6.4,9.5,9.7l27.3,27.3
            c10.6,10.6,10.6,20.4,0,31c-2.9,2.9-5.7,5.8-8.6,8.6c-8.4,8.6-16.4,16.6-25.1,24.4c-0.2,0.2-0.4,0.3-0.5,0.5
            c-8.6,8.6-7,17-5.2,22.7c0.1,0.3,0.2,0.6,0.3,0.9c7.1,17.2,17.1,33.4,32.3,52.7l0.1,0.1c27.6,34,56.7,60.5,88.8,80.8
            c4.1,2.6,8.3,4.7,12.3,6.7c3.6,1.8,7,3.5,9.9,5.3c0.4,0.2,0.8,0.5,1.2,0.7c3.4,1.7,6.6,2.5,9.9,2.5c8.3,0,13.5-5.2,15.2-6.9
            l34.2-34.2c3.4-3.4,8.8-7.5,15.1-7.5c6.2,0,11.3,3.9,14.4,7.3c0.1,0.1,0.1,0.1,0.2,0.2l55.1,55.1
            C420.456,377.706,420.456,388.206,410.256,398.806z"/>
          <path d="M256.056,112.706c26.2,4.4,50,16.8,69,35.8s31.3,42.8,35.8,69c1.1,6.6,6.8,11.2,13.3,11.2c0.8,0,1.5-0.1,2.3-0.2
            c7.4-1.2,12.3-8.2,11.1-15.6c-5.4-31.7-20.4-60.6-43.3-83.5s-51.8-37.9-83.5-43.3c-7.4-1.2-14.3,3.7-15.6,11
            S248.656,111.506,256.056,112.706z"/>
          <path d="M473.256,209.006c-8.9-52.2-33.5-99.7-71.3-137.5s-85.3-62.4-137.5-71.3c-7.3-1.3-14.2,3.7-15.5,11
            c-1.2,7.4,3.7,14.3,11.1,15.6c46.6,7.9,89.1,30,122.9,63.7c33.8,33.8,55.8,76.3,63.7,122.9c1.1,6.6,6.8,11.2,13.3,11.2
            c0.8,0,1.5-0.1,2.3-0.2C469.556,223.306,474.556,216.306,473.256,209.006z"/>
        </g>
      </g>
    </symbol>

    <symbol viewBox="0 0 512 512" id="svg-back-arrow">
      <title>back arrow</title>
      <path d="M511.563 434.259c-1.728-142.329-124.42-258.242-277.087-263.419V95.999c0-17.645-14.342-31.999-31.974-31.999-7.931 0-15.591 3.042-21.524 8.562 0 0-134.828 124.829-173.609 163.755C2.623 241.109 0 248.088 0 255.994s2.623 14.885 7.369 19.687c38.781 38.915 173.609 163.745 173.609 163.745 5.933 5.521 13.593 8.562 21.524 8.562 17.631 0 31.974-14.354 31.974-31.999v-74.591c153.479 2.156 255.792 50.603 255.792 95.924 0 5.896 4.767 10.666 10.658 10.666.167.021.333.01.416 0 5.891 0 10.658-4.771 10.658-10.666 0-1.063-.146-2.094-.437-3.063z"/>
    </symbol>    

    <symbol viewBox="0 0 3200 2621" id="svg-logo">
      <title>cumulus logo</title>
      <g transform="scale(16.43762088914212)">
        <path stroke="none" d="M21.306 42.545 c-0.469 3.216 -2.546 4.288 -4.958 4.288 c-2.479 0 -2.412 -0.469 -0.871 -2.68 c3.015 -4.355 5.293 -9.581 1.005 -9.581 c-5.561 0 -11.122 5.896 -11.122 16.683 c0 9.514 3.685 14.338 9.514 14.673 c4.958 0.268 9.514 -3.484 10.184 -8.576 c0.134 -1.474 1.474 -1.407 1.273 0.335 c-0.871 6.298 -6.432 10.117 -12.127 9.983 c-6.968 -0.134 -13.534 -3.752 -13.534 -16.281 c0 -12.261 9.246 -18.894 15.611 -18.492 c4.288 0.268 5.896 3.752 5.025 9.648 z M26.599000000000004 41.741 c2.814 -1.273 2.01 3.283 2.01 9.782 l0 4.087 c0 5.695 1.206 9.514 3.35 9.648 c2.077 0.067 3.417 -2.211 4.154 -7.437 c-0.067 -0.67 -0.067 -1.407 -0.067 -2.211 c0 -8.107 -0.804 -12.194 2.747 -13.869 c2.814 -1.273 2.01 3.283 2.01 9.782 l0 4.087 c0 5.695 1.206 9.514 3.35 9.648 c2.144 0.067 3.551 -2.345 4.221 -7.906 c0.201 -1.474 1.541 -1.407 1.273 0.335 c-0.871 6.7 -3.484 9.38 -6.365 9.313 c-2.479 0 -5.293 -1.34 -6.566 -5.695 c-1.206 4.087 -3.35 5.762 -5.628 5.695 c-3.35 -0.067 -7.236 -2.412 -7.236 -11.39 c0 -8.107 -0.804 -12.194 2.747 -13.869 z M59.295 61.707 c0 -0.201 0.067 -6.968 0.067 -8.107 c0 -5.695 -0.134 -9.782 -2.345 -9.581 c-2.345 0.201 -4.288 3.953 -5.092 9.045 l0 5.963 c0 5.896 -1.34 8.107 -3.35 7.906 c-2.144 -0.201 -1.407 -1.072 -1.407 -5.226 l0 -6.097 c0 -8.107 -0.804 -12.194 2.747 -13.869 c2.278 -1.005 2.144 1.809 2.01 6.432 c1.407 -3.752 3.685 -5.695 6.03 -5.896 c3.082 -0.268 5.159 1.541 5.896 6.834 c1.34 -4.355 3.752 -6.633 6.298 -6.834 c3.886 -0.335 6.164 2.546 6.164 11.323 l0 2.01 c0 5.695 1.206 9.514 3.35 9.648 s3.551 -2.345 4.221 -7.906 c0.201 -1.474 1.541 -1.407 1.273 0.335 c-0.871 6.7 -3.484 9.38 -6.365 9.313 c-3.35 -0.067 -7.236 -2.345 -7.236 -11.39 l0 -2.01 c0 -5.695 -0.134 -9.782 -2.345 -9.581 c-2.345 0.201 -4.288 3.953 -5.092 9.045 l0 0.536 c0 2.211 -0.067 4.288 -0.067 5.427 c0 5.896 -1.273 8.107 -3.35 7.906 c-2.144 -0.201 -1.407 -1.072 -1.407 -5.226 z M85.42500000000001 41.741 c2.814 -1.273 2.01 3.283 2.01 9.782 l0 4.087 c0 5.695 1.206 9.514 3.35 9.648 c2.077 0.067 3.417 -2.211 4.154 -7.437 c-0.067 -0.67 -0.067 -1.407 -0.067 -2.211 c0 -8.107 -0.804 -12.194 2.747 -13.869 c2.814 -1.273 2.01 3.283 2.01 9.782 l0 4.087 c0 5.695 1.206 9.514 3.35 9.648 c2.144 0.067 3.551 -2.345 4.221 -7.906 c0.201 -1.474 1.541 -1.407 1.273 0.335 c-0.871 6.7 -3.484 9.38 -6.365 9.313 c-2.479 0 -5.293 -1.34 -6.566 -5.695 c-1.206 4.087 -3.35 5.762 -5.628 5.695 c-3.35 -0.067 -7.236 -2.412 -7.236 -11.39 c0 -8.107 -0.804 -12.194 2.747 -13.869 z M105.927 55.61 l0 -9.112 c0 -7.638 -0.67 -11.591 2.747 -13.199 c2.814 -1.34 2.01 2.01 2.01 12.395 l0 9.916 c0 5.695 1.206 9.514 3.35 9.648 s3.551 -2.345 4.221 -7.906 c0.201 -1.474 1.541 -1.407 1.273 0.335 c-0.871 6.7 -3.484 9.38 -6.432 9.313 c-3.35 -0.067 -7.169 -2.345 -7.169 -11.39 z M119.79600000000002 41.741 c2.814 -1.273 2.01 3.283 2.01 9.782 l0 4.087 c0 5.695 1.206 9.514 3.35 9.648 c2.077 0.067 3.417 -2.211 4.154 -7.437 c-0.067 -0.67 -0.067 -1.407 -0.067 -2.211 c0 -8.107 -0.804 -12.194 2.747 -13.869 c2.814 -1.273 2.01 3.283 2.01 9.782 l0 4.087 c0 5.695 1.206 9.514 3.35 9.648 c2.144 0.067 3.551 -2.345 4.221 -7.906 c0.201 -1.474 1.541 -1.407 1.273 0.335 c-0.871 6.7 -3.484 9.38 -6.365 9.313 c-2.479 0 -5.293 -1.34 -6.566 -5.695 c-1.206 4.087 -3.35 5.762 -5.628 5.695 c-3.35 -0.067 -7.236 -2.412 -7.236 -11.39 c0 -8.107 -0.804 -12.194 2.747 -13.869 z M140.36500000000004 58.96 c0.268 -2.814 1.943 -4.623 4.288 -4.623 c2.479 0 2.345 0.402 0.938 2.747 c-2.613 4.489 -1.675 7.772 2.412 8.241 c3.752 0.469 6.767 -1.742 7.102 -5.226 c0.335 -3.417 -2.144 -6.097 -5.427 -8.107 c-5.762 -3.618 -7.437 -8.71 -5.159 -11.524 c1.005 -1.206 4.757 -0.469 3.618 0.938 c-3.283 3.953 -1.407 3.551 3.417 5.896 c4.891 2.412 6.901 6.432 6.03 11.859 c-0.871 5.561 -5.293 8.308 -9.916 7.839 c-3.618 -0.402 -7.973 -2.278 -7.303 -8.04 z" transform="translate(11.691573143005371,67.04100036621094)" fill="currentColor"/>
        <path stroke="none" id="svg-logo--bookkeeping-solutions" d="M8.4576 16.7798 c1.4068 0.64407 2.2881 1.9324 2.2881 3.4408 c0 2.2373 -1.9661 3.7795 -4.0508 3.7795 l-5.4746 0 c-0.16949 0 -0.28814 -0.11864 -0.28814 -0.28814 l0 -13 c0 -0.15254 0.10169 -0.27119 0.27119 -0.27119 l5.051 0 c2.1524 0 3.7625 1.8814 3.7625 3.5763 c0 1.2373 -0.66102 2.2034 -1.5593 2.7627 z M5.8814 16.2207 c2.8136 0 2.8644 -3.9322 0.033898 -3.9322 l-3.0678 0 l0 3.9322 l3.0339 0 z M6.2542 22.1529 c3.322 0 3.339 -4.1356 -0.033898 -4.1356 l-3.3729 0 l0.016949 4.1356 l3.3898 0 z M16.66086779661017 24.11864 c2.3729 0 4.339 -1.8812 4.339 -4.3049 c0 -2.4746 -1.9661 -4.322 -4.339 -4.322 s-4.339 1.8475 -4.339 4.322 c0 2.4237 1.9661 4.3049 4.339 4.3049 z M16.66086779661017 22.39 c-1.4576 0 -2.5424 -1.2034 -2.5424 -2.5593 c0 -1.4068 1.0847 -2.6102 2.5424 -2.6102 s2.5424 1.2034 2.5424 2.6102 c0 1.3559 -1.0847 2.5593 -2.5424 2.5593 z M26.694766101694913 24.11864 c2.3729 0 4.339 -1.8812 4.339 -4.3049 c0 -2.4746 -1.9661 -4.322 -4.339 -4.322 s-4.339 1.8475 -4.339 4.322 c0 2.4237 1.9661 4.3049 4.339 4.3049 z M26.694766101694913 22.39 c-1.4576 0 -2.5424 -1.2034 -2.5424 -2.5593 c0 -1.4068 1.0847 -2.6102 2.5424 -2.6102 s2.5424 1.2034 2.5424 2.6102 c0 1.3559 -1.0847 2.5593 -2.5424 2.5593 z M40.67776440677966 23.44085 c0.22034 0.23729 0.11848 0.54271 -0.20356 0.54271 l-1.3729 0 c-0.15254 0 -0.23729 -0.033898 -0.33898 -0.15254 l-4.0339 -4.0339 l0 3.9322 c0 0.15238 -0.11864 0.27102 -0.27119 0.27102 l-1.2881 0 c-0.16949 0 -0.28814 -0.11864 -0.28814 -0.27102 l0 -11.848 c0 -0.57627 -0.084746 -0.83051 -0.13559 -1.0847 c-0.033732 -0.18661 0.017115 -0.3561 0.18661 -0.3561 l1.1525 0 c0.38983 0 0.64407 0.25424 0.64407 0.61017 l0 8.2881 l3.4068 -3.5932 c0.10169 -0.10169 0.20339 -0.13559 0.32203 -0.13559 l1.3559 0 c0.27119 0 0.42373 0.33898 0.22034 0.55932 l-3.339 3.4068 z M50.457425423728814 23.44085 c0.22034 0.23729 0.11848 0.54271 -0.20356 0.54271 l-1.3729 0 c-0.15254 0 -0.23729 -0.033898 -0.33898 -0.15254 l-4.0339 -4.0339 l0 3.9322 c0 0.15238 -0.11864 0.27102 -0.27119 0.27102 l-1.2881 0 c-0.16949 0 -0.28814 -0.11864 -0.28814 -0.27102 l0 -11.848 c0 -0.57627 -0.084746 -0.83051 -0.13559 -1.0847 c-0.033732 -0.18661 0.017115 -0.3561 0.18661 -0.3561 l1.1525 0 c0.38983 0 0.64407 0.25424 0.64407 0.61017 l0 8.2881 l3.4068 -3.5932 c0.10169 -0.10169 0.20339 -0.13559 0.32203 -0.13559 l1.3559 0 c0.27119 0 0.42373 0.33898 0.22034 0.55932 l-3.339 3.4068 z M59.13558644067797 20.4915 c0.61 0 1.0336 -0.30508 1.0336 -1.0169 c0 -2.0847 -1.6102 -3.9831 -4.0847 -3.9831 c-2.3559 0 -4.2034 1.8644 -4.2034 4.3051 c0 2.5422 1.9322 4.288 4.3051 4.288 c1.5085 0 2.6949 -0.61017 3.4237 -1.5932 c0.10186 -0.13559 0.067963 -0.23729 -0.033568 -0.37288 l-0.32203 -0.42373 c-0.13559 -0.16933 -0.27119 -0.15254 -0.44085 -0.050847 c-0.5422 0.44068 -1.4405 0.81373 -2.4236 0.81373 c-1.3898 0 -2.3729 -0.84746 -2.5593 -1.9661 l5.3051 0 z M53.83038644067796 19.0508 c0.067797 -0.81356 0.83051 -1.8644 2.2203 -1.8644 c1.4068 0 2.1356 1.0678 2.1864 1.8644 l-4.4068 0 z M68.66101016949152 20.4915 c0.61 0 1.0336 -0.30508 1.0336 -1.0169 c0 -2.0847 -1.6102 -3.9831 -4.0847 -3.9831 c-2.3559 0 -4.2034 1.8644 -4.2034 4.3051 c0 2.5422 1.9322 4.288 4.3051 4.288 c1.5085 0 2.6949 -0.61017 3.4237 -1.5932 c0.10186 -0.13559 0.067963 -0.23729 -0.033568 -0.37288 l-0.32203 -0.42373 c-0.13559 -0.16933 -0.27119 -0.15254 -0.44085 -0.050847 c-0.5422 0.44068 -1.4405 0.81373 -2.4236 0.81373 c-1.3898 0 -2.3729 -0.84746 -2.5593 -1.9661 l5.3051 0 z M63.35581016949152 19.0508 c0.067797 -0.81356 0.83051 -1.8644 2.2203 -1.8644 c1.4068 0 2.1356 1.0678 2.1864 1.8644 l-4.4068 0 z M75.67783389830508 15.5256 c1.9831 0 3.8814 1.6271 3.8814 4.1695 c0 2.4746 -1.5424 4.4064 -3.9322 4.4064 c-0.91525 0 -1.6949 -0.30475 -2.2881 -0.71153 l0 4.8303 c0 0.49153 -0.52542 0.76271 -0.89831 0.76271 l-0.67797 0 c-0.15254 0 -0.27119 -0.11864 -0.27119 -0.27119 l0 -11.644 c0 -0.52542 -0.084746 -0.79661 -0.13559 -1.1017 c-0.033732 -0.18644 0.017115 -0.35593 0.18661 -0.35593 l1.1525 0 c0.37288 0 0.62729 0.23729 0.64407 0.57627 c0.57627 -0.35593 1.3219 -0.66102 2.3388 -0.66102 z M75.33883389830508 22.3902 c1.3729 0 2.4068 -1.0169 2.4068 -2.6949 c0 -1.7288 -1.2712 -2.4576 -2.339 -2.4576 c-0.76271 0 -1.4576 0.27119 -2.0678 0.66102 l0 3.9322 c0.54237 0.30508 1.1864 0.55932 2 0.55932 z M82.60997966101694 12.492 c-0.55915 0 -1.0168 -0.44068 -1.0168 -1.0169 c0 -0.55932 0.45763 -1.0169 1.0168 -1.0169 c0.55932 0 1.0169 0.45763 1.0169 1.0169 c0 0.57627 -0.45763 1.0169 -1.0169 1.0169 z M83.27097966101694 15.6102 l-1.3051 0 c-0.16949 0 -0.27119 0.11881 -0.27119 0.27119 l0 7.4407 c0 0.38983 0.23729 0.6778 0.64407 0.6778 l0.94915 0 c0.15254 0 0.25424 -0.10153 0.25424 -0.28797 l0 -7.8305 c0 -0.15238 -0.11864 -0.27119 -0.27119 -0.27119 z M93.9659593220339 23.64424 c0.033898 0.18644 -0.016784 0.35576 -0.16916 0.35576 l-1.1017 0 c-0.44068 0 -0.66102 -0.28797 -0.66102 -0.6778 l0 -4.4068 c0 -1.1186 -0.77966 -1.7627 -1.8983 -1.7627 c-0.9661 0 -1.7797 0.45763 -2.4575 1.1186 l0 5.4578 c0 0.15238 -0.11864 0.27102 -0.27119 0.27102 l-1.3222 0 c-0.15238 0 -0.25407 -0.11864 -0.25407 -0.27102 l0 -7.8476 c0 -0.15238 0.10169 -0.27119 0.25407 -0.27119 l0.91525 0 c0.40678 0 0.66102 0.42373 0.67797 0.72881 l0 0.16949 c0.66102 -0.50864 1.5422 -1.0171 2.6947 -1.0171 c1.7458 0 3.4915 1.1019 3.4915 3.2205 l0 3.7627 c0.016784 0.47458 0.050681 0.83051 0.10153 1.1695 z M101.40680847457628 24.20339 c1.8981 0.23729 3.3225 0.71186 3.2547 2.5932 c-0.050847 1.9831 -1.8983 3.2034 -4.8475 3.2034 c-2.339 0 -4 -0.98305 -3.9661 -2.7966 c0.016949 -1 0.64407 -1.6949 1.8305 -1.9322 c-1.1017 -0.18644 -2.2542 -0.83051 -2.2881 -1.9151 c-0.033898 -0.98305 0.76271 -1.678 2.0847 -1.4914 c-0.59322 -0.30525 -1.322 -1.3222 -1.339 -2.4578 c-0.050847 -2.2034 1.6271 -3.8812 3.7797 -3.8812 c1.339 0 1.7288 0.28797 3.8644 0.22017 c0.15254 0 0.27119 0.084746 0.27119 0.25407 l-0.067797 0.86475 c-0.16949 0.15238 -0.69492 0.16933 -1.0678 0.20322 c0.76271 0.69492 0.91525 1.5424 0.91525 2.3559 c0 2.2203 -1.7292 3.678 -3.7631 3.6102 c-0.81356 -0.033898 -1.3898 -0.25407 -1.7629 -0.38966 c-0.6778 -0.16949 -1.1356 0.033898 -1.1186 0.45763 c0.033898 0.42373 0.61017 0.6439 1.5254 0.76271 c1.1525 0.15221 2.0169 0.2539 2.6949 0.33864 z M100.00070847457627 17.2712 c-1.1525 0 -2.0678 0.88136 -2.0678 2.0508 c0 1.0508 0.9322 1.9661 2.0508 1.9661 c1.2542 0.016949 2.0339 -0.86441 2.0507 -1.9661 c-0.016784 -1.1695 -0.89814 -2.0508 -2.0337 -2.0508 z M100.00070847457627 28.3049 c1.4237 0 2.661 -0.45746 2.6949 -1.4236 c0.016949 -0.52542 -0.35593 -0.81356 -1.2373 -0.98305 c-0.64407 -0.11881 -1.4915 -0.23746 -2.4068 -0.33915 c-0.66102 -0.084746 -1.339 0.45763 -1.3559 1.2881 c-0.033898 1.1017 1 1.4576 2.3051 1.4576 z M110.71186677966102 21.678 l0.74576 -0.84763 c0.18644 -0.20339 0.38983 -0.20339 0.5422 -0.084746 c0.4578 0.38983 1.6103 1.5424 3.1527 1.5424 c1.6949 0 2.7119 -0.81356 2.7119 -1.9322 c0 -1.3898 -1.5257 -1.7797 -2.9834 -2.339 c-2.2203 -0.88136 -3.9831 -1.8644 -3.9831 -3.9831 c0 -1.7288 1.2712 -3.6949 4.322 -3.6949 c2.0847 0 3.5932 1.2034 4.0169 1.6102 c0.15254 0.15254 0.23729 0.35593 0.10169 0.52542 l-0.66102 0.86441 c-0.13559 0.18661 -0.32203 0.25441 -0.54237 0.10186 c-0.44068 -0.33898 -1.4915 -1.2881 -2.8983 -1.2881 c-1.5254 0 -2.4237 0.84746 -2.4237 1.8814 c0 1.1695 1.1186 1.6441 2.712 2.2542 c2.0339 0.81356 4.2373 1.7627 4.2373 4.0847 c0 1.9831 -1.8981 3.7456 -4.5931 3.7456 c-2.4407 0 -3.9492 -1.5761 -4.3729 -1.9829 c-0.13559 -0.11864 -0.25424 -0.27102 -0.084746 -0.45763 z M125.54222372881357 24.11864 c2.3729 0 4.339 -1.8812 4.339 -4.3049 c0 -2.4746 -1.9661 -4.322 -4.339 -4.322 s-4.339 1.8475 -4.339 4.322 c0 2.4237 1.9661 4.3049 4.339 4.3049 z M125.54222372881357 22.39 c-1.4576 0 -2.5424 -1.2034 -2.5424 -2.5593 c0 -1.4068 1.0847 -2.6102 2.5424 -2.6102 s2.5424 1.2034 2.5424 2.6102 c0 1.3559 -1.0847 2.5593 -2.5424 2.5593 z M133.4068220338983 10.441 l-1.3053 0 c-0.16933 0 -0.27119 0.11864 -0.27119 0.27119 l0 12.61 c0 0.38983 0.23746 0.6778 0.66119 0.6778 l0.91525 0 c0.16949 0 0.27119 -0.10153 0.27119 -0.28797 l0 -13 c0 -0.15254 -0.11864 -0.27119 -0.27119 -0.27119 z M143.61015593220338 15.6102 c0.15254 0 0.25424 0.11881 0.25424 0.28831 l0 7.8305 c0 0.15238 -0.10169 0.27102 -0.23729 0.27102 l-1.0508 0 c-0.28814 0 -0.52542 -0.42356 -0.54237 -0.71169 l0 -0.18644 c-0.66102 0.50847 -1.5593 0.99983 -2.7119 0.99983 c-1.7458 0 -3.4915 -1.1015 -3.4915 -3.2202 l0 -3.7458 c0 -0.45763 -0.033898 -0.81356 -0.084746 -1.1695 c-0.033898 -0.18644 0.016949 -0.35593 0.16949 -0.35593 l1.1017 0 c0.42373 0 0.66102 0.28814 0.66102 0.67797 l0 4.4237 c0 1.1186 0.76271 1.7458 1.8983 1.7458 c0.9661 0 1.7627 -0.54237 2.4576 -1.2373 l0 -5.322 c0 -0.16949 0.10169 -0.28831 0.25407 -0.28831 l1.3222 0 z M150.93201016949152 23.4578 c0.050847 0.13559 -0.050681 0.22 -0.16933 0.30475 c-0.28814 0.18644 -0.91525 0.32203 -1.5424 0.32203 c-1.8136 0 -2.4746 -0.9322 -2.4746 -3.1186 l0 -3.5763 l-1 0 c-0.15254 0 -0.27119 -0.10169 -0.27119 -0.27119 l0 -0.28814 c0 -0.13559 0.033898 -0.23712 0.13559 -0.33898 c0.98305 -0.79661 1.7627 -1.6269 2.4407 -3.339 c0.050847 -0.11864 0.10169 -0.18644 0.18644 -0.18644 l0.18644 0 c0.13559 0 0.18644 0.067797 0.18644 0.22034 l0 2.4237 l1.7797 0 c0.15254 0 0.28814 0.11881 0.28814 0.28831 l0 1.2203 c0 0.15254 -0.13559 0.27119 -0.28814 0.27119 l-1.4746 0 c-0.13559 0 -0.25424 -0.016949 -0.32203 -0.050847 l0 3.4576 c0 0.98305 0.11864 1.5424 0.94915 1.5424 c0.35593 0 0.59322 -0.050847 0.79661 -0.10169 s0.33898 0.033898 0.37288 0.22051 z M153.8303186440678 12.492 c-0.55915 0 -1.0168 -0.44068 -1.0168 -1.0169 c0 -0.55932 0.45763 -1.0169 1.0168 -1.0169 c0.55932 0 1.0169 0.45763 1.0169 1.0169 c0 0.57627 -0.45763 1.0169 -1.0169 1.0169 z M154.4913186440678 15.6102 l-1.3051 0 c-0.16949 0 -0.27119 0.11881 -0.27119 0.27119 l0 7.4407 c0 0.38983 0.23729 0.6778 0.64407 0.6778 l0.94915 0 c0.15254 0 0.25424 -0.10153 0.25424 -0.28797 l0 -7.8305 c0 -0.15238 -0.11864 -0.27119 -0.27119 -0.27119 z M161.05069830508472 24.11864 c2.3729 0 4.339 -1.8812 4.339 -4.3049 c0 -2.4746 -1.9661 -4.322 -4.339 -4.322 s-4.339 1.8475 -4.339 4.322 c0 2.4237 1.9661 4.3049 4.339 4.3049 z M161.05069830508472 22.39 c-1.4576 0 -2.5424 -1.2034 -2.5424 -2.5593 c0 -1.4068 1.0847 -2.6102 2.5424 -2.6102 s2.5424 1.2034 2.5424 2.6102 c0 1.3559 -1.0847 2.5593 -2.5424 2.5593 z M175.22019661016947 23.64424 c0.033898 0.18644 -0.016784 0.35576 -0.16916 0.35576 l-1.1017 0 c-0.44068 0 -0.66102 -0.28797 -0.66102 -0.6778 l0 -4.4068 c0 -1.1186 -0.77966 -1.7627 -1.8983 -1.7627 c-0.9661 0 -1.7797 0.45763 -2.4575 1.1186 l0 5.4578 c0 0.15238 -0.11864 0.27102 -0.27119 0.27102 l-1.3222 0 c-0.15238 0 -0.25407 -0.11864 -0.25407 -0.27102 l0 -7.8476 c0 -0.15238 0.10169 -0.27119 0.25407 -0.27119 l0.91525 0 c0.40678 0 0.66102 0.42373 0.67797 0.72881 l0 0.16949 c0.66102 -0.50864 1.5422 -1.0171 2.6947 -1.0171 c1.7458 0 3.4915 1.1019 3.4915 3.2205 l0 3.7627 c0.016784 0.47458 0.050681 0.83051 0.10153 1.1695 z M176.89813576271183 22.7798 l0.5761 -0.91508 c0.11864 -0.18661 0.22034 -0.23746 0.38983 -0.15271 c0.016949 0.033898 1.0508 0.64407 2.1864 0.64407 c0.98305 0 1.322 -0.38983 1.322 -0.77966 c0 -0.57627 -0.62712 -0.77949 -1.7627 -1.0676 c-1.6102 -0.42373 -2.678 -1.2542 -2.678 -2.5424 c0 -1.2712 1.0847 -2.4576 3.1186 -2.4576 c1.2373 0 2.0847 0.42373 2.7627 0.81356 c0.16949 0.10169 0.25424 0.25424 0.15254 0.38983 l-0.62712 0.9661 c-0.084746 0.13559 -0.22034 0.18644 -0.37288 0.13559 c-0.44068 -0.22017 -1.1525 -0.54237 -1.9153 -0.54237 c-0.94915 0 -1.2034 0.47458 -1.2034 0.76271 c0 0.49153 0.71186 0.72881 1.5763 0.96593 c1.5086 0.40678 3.0171 1.1356 3.0171 2.6102 c0 1.4237 -1.3558 2.5083 -3.3898 2.5083 c-1.3898 0 -2.6441 -0.6778 -3.0678 -1.0168 c-0.11864 -0.067797 -0.15254 -0.23729 -0.084746 -0.32203 z" transform="translate(-0.9321602582931519,129.50616836547852)" fill="currentColor"/>
        <g xmlns="http://www.w3.org/2000/svg" transform="translate(30.489224480984287,-16.229271802211585) scale(0.2372700767601346)">
          <path class="svg-logo--cloud" d="M106,199.7c14,0,110.5,0,131.3,0s37.5-16.8,37.5-37.5s-16.8-37.5-37.5-37.5c-0.3,0-0.6,0.1-1,0.1c0.6-3.1,1-6.2,1-9.5 c0-25.9-21-46.9-46.9-46.9c-16.7,0-31.3,8.8-39.6,22c-5.2-2-10.8-3.2-16.7-3.2c-24.4,0-44.2,18.7-46.4,42.5 c-11.4,6.4-19.2,18.5-19.2,32.5C68.5,183,85.3,199.7,106,199.7z"/>
          <path class="svg-logo--cloud" d="M396.9,349.8c6.7-13.7,10.6-29.1,10.6-45.4c0-57-46.2-103.1-103.1-103.1c-48.1,0-88.5,33-99.8,77.6 c-7.4-2.5-15.3-4.1-23.5-4.1c-41.4,0-75,33.6-75,75c0,0.3,0.1,0.6,0.1,0.9c-21.4,4.3-37.6,23.2-37.6,45.9 c0,25.9,21,46.9,46.9,46.9c17.3,0,255.4,0,281.3,0c25.9,0,46.9-21,46.9-46.9C443.5,370.8,422.6,349.9,396.9,349.8z"/>
        </g>
      </g>
    </symbol>

  </defs>
</svg>
